<svg xmlns="http://www.w3.org/2000/svg" viewBox="0 0 100 100" width="100" height="100">
  <defs>
    <linearGradient id="solarGradient" x1="0%" y1="0%" x2="100%" y2="100%">
      <stop offset="0%" style="stop-color:#00D4AA;stop-opacity:1" />
      <stop offset="50%" style="stop-color:#0891B2;stop-opacity:1" />
      <stop offset="100%" style="stop-color:#7C3AED;stop-opacity:1" />
    </linearGradient>
    <filter id="glow">
      <feGaussianBlur stdDeviation="3" result="coloredBlur"/>
      <feMerge> 
        <feMergeNode in="coloredBlur"/>
        <feMergeNode in="SourceGraphic"/>
      </feMerge>
    </filter>
  </defs>
  
  <!-- Background circle -->
  <circle cx="50" cy="50" r="45" fill="url(#solarGradient)" filter="url(#glow)" opacity="0.9"/>
  
  <!-- Solar panel representation -->
  <g transform="translate(50,50)">
    <!-- Main panel -->
    <rect x="-18" y="-12" width="36" height="24" rx="2" fill="white" opacity="0.9"/>
    
    <!-- Panel grid lines -->
    <line x1="-18" y1="-4" x2="18" y2="-4" stroke="#0891B2" stroke-width="0.5"/>
    <line x1="-18" y1="4" x2="18" y2="4" stroke="#0891B2" stroke-width="0.5"/>
    <line x1="-6" y1="-12" x2="-6" y2="12" stroke="#0891B2" stroke-width="0.5"/>
    <line x1="6" y1="-12" x2="6" y2="12" stroke="#0891B2" stroke-width="0.5"/>
    
    <!-- Sun rays -->
    <g stroke="#00D4AA" stroke-width="2" stroke-linecap="round">
      <line x1="0" y1="-25" x2="0" y2="-30"/>
      <line x1="18" y1="-18" x2="21" y2="-21"/>
      <line x1="25" y1="0" x2="30" y2="0"/>
      <line x1="18" y1="18" x2="21" y2="21"/>
      <line x1="0" y1="25" x2="0" y2="30"/>
      <line x1="-18" y1="18" x2="-21" y2="21"/>
      <line x1="-25" y1="0" x2="-30" y2="0"/>
      <line x1="-18" y1="-18" x2="-21" y2="-21"/>
    </g>
    
    <!-- Central energy symbol -->
    <circle cx="0" cy="0" r="3" fill="#7C3AED"/>
    <path d="M-1,-3 L1,0 L-1,3 M1,-3 L-1,0 L1,3" stroke="white" stroke-width="1" fill="none"/>
  </g>
</svg>
